:SAMPLES-PER-SECOND 30
:FULLY-SPECIFIED
:DEGREES
1053
root  -55.3173 39.5844 29.0957 -176.195 -28.3964 177.172
RightUpLeg  -26.5542 -13.8034 5.19406
RightLeg  24.8927 2.70349 1.13837
RightFoot  -0.101013 1.12391 -11.3758
RightToes  0.00048216 0.542163 -0.142577
Spine  37.3451 -0.875506 20.1529
Spine1  10.4855 7.49185 -6.49138
HEad  -11.7061 -26.5317 11.3353
LeftShoulder1  9.95788 -15.4088 -45.9156
LeftArm  -1.17451 20.7376 -27.7967
LeftForeArm  35.4652 -37.1103 -6.32843
LeftHand  -0.25398 0.0180481 5.50724
RightShoulder  4.39544 10.0935 26.2593
RightArm  -21.6407 47.6047 27.4941
RightForeArm  -10.7729 23.5025 5.61566
RightHand  -12.3775 26.3415 -43.4228
LeftUpLeg  -28.1326 2.35568 4.44486
LeftLeg  22.9116 1.64976 1.07622
LeftFoot  0.724494 0.601852 -5.69437
LeftToes  1.06246e-005 4.65856e-005 -8.18502e-006
1054
root  -56.2549 39.5959 28.981 -176.18 -25.4753 177.44
RightUpLeg  -26.491 -11.0344 3.99609
RightLeg  26.0879 2.65222 1.17517
RightFoot  -0.801594 0.964857 -10.4797
RightToes  0.00048216 0.542163 -0.142577
Spine  38.8033 -0.857756 20.3586
Spine1  10.9647 8.29478 -7.47097
HEad  -12.5052 -26.4388 11.0854
LeftShoulder1  10.1308 -15.6414 -46.1523
LeftArm  -0.344953 20.6312 -27.3147
LeftForeArm  34.2191 -35.7609 -6.0432
LeftHand  -0.25398 0.0180481 5.50724
RightShoulder  4.30242 10.273 25.115
RightArm  -24.284 50.8098 26.0047
RightForeArm  -11.9038 19.8244 5.39647
RightHand  -11.7299 25.7117 -42.1347
LeftUpLeg  -26.0078 -2.19889 6.43031
LeftLeg  14.2784 -1.53001 -0.0761932
LeftFoot  4.02464 0.911653 -6.96304
LeftToes  1.06246e-005 4.65856e-005 -8.18502e-006
1055
root  -57.1606 39.5965 28.9379 -176.468 -22.5479 177.622
RightUpLeg  -26.3891 -7.48051 2.54345
RightLeg  27.3809 2.04526 0.911079
RightFoot  -1.27283 0.804069 -9.19658
RightToes  0.00048216 0.542163 -0.142577
Spine  40.4744 -0.831423 19.9443
Spine1  11.5963 9.09781 -8.37269
HEad  -13.1147 -26.1623 10.8181
LeftShoulder1  10.2286 -15.7737 -46.2816
LeftArm  0.629018 20.3385 -26.9714
LeftForeArm  33.6548 -34.5264 -5.75837
LeftHand  -0.25398 0.0180481 5.50724
RightShoulder  4.2956 10.561 24.3918
RightArm  -27.8012 53.4768 24.5465
RightForeArm  -12.0525 16.4995 5.54033
RightHand  -11.441 25.5435 -41.3974
LeftUpLeg  -24.7543 -1.49524 5.77348
LeftLeg  11.6736 -4.38022 -0.500313
LeftFoot  7.55371 0.969924 -6.12446
LeftToes  1.06246e-005 4.65856e-005 -8.18502e-006
1056
root  -58.0093 39.5868 28.9165 -176.394 -20.0618 177.721
RightUpLeg  -26.7001 -3.92747 1.06617
RightLeg  28.4796 1.12028 0.419774
RightFoot  -1.75694 0.616914 -7.47798
RightToes  0.00048216 0.542163 -0.142577
Spine  41.8774 -0.700187 19.0357
Spine1  11.9718 9.5864 -8.84292
HEad  -13.9118 -25.7133 10.7619
LeftShoulder1  10.3361 -15.8744 -46.5314
LeftArm  1.36816 19.91 -26.4268
LeftForeArm  32.9634 -33.62 -5.57039
LeftHand  -0.25398 0.0180481 5.50724
RightShoulder  4.33795 10.8055 24.1535
RightArm  -30.5141 55.775 23.2028
RightForeArm  -12.723 14.2172 5.62201
RightHand  -11.5084 25.8541 -41.2352
LeftUpLeg  -24.9059 2.75362 3.97857
LeftLeg  13.2902 -5.92835 -1.42162
LeftFoot  8.99772 0.718846 -4.29443
LeftToes  1.06246e-005 4.65856e-005 -8.18502e-006
1057
root  -58.8214 39.5989 28.8687 -175.515 -18.498 177.575
RightUpLeg  -27.4948 -1.33649 -0.586551
RightLeg  29.0796 0.261202 -0.0813265
RightFoot  -2.36802 0.426789 -5.6348
RightToes  0.00048216 0.542163 -0.142577
Spine  42.5163 -0.664609 18.0921
Spine1  12.1449 9.46004 -8.87324
HEad  -15.0898 -25.1136 10.9479
LeftShoulder1  10.4897 -16.0144 -46.893
LeftArm  1.73575 19.2042 -25.6596
LeftForeArm  31.7609 -33.2083 -5.53623
LeftHand  -0.25398 0.0180481 5.50724
RightShoulder  4.36284 10.8912 24.1456
RightArm  -32.1966 57.6645 22.353
RightForeArm  -13.2056 13.3528 5.60306
RightHand  -11.7669 26.4491 -41.3501
LeftUpLeg  -26.0363 6.50229 2.04033
LeftLeg  15.3694 -6.97783 -2.03486
LeftFoot  8.06075 0.53019 -3.39063
LeftToes  1.06246e-005 4.65856e-005 -8.18502e-006
1058
root  -59.5928 39.6832 28.8244 -174.436 -17.7436 177.346
RightUpLeg  -27.982 0.504634 -2.34887
RightLeg  28.7487 -0.513084 -0.542097
RightFoot  -2.76544 0.270845 -3.86265
RightToes  0.00048216 0.542163 -0.142577
Spine  42.8914 -0.992699 17.5286
Spine1  12.3252 9.01872 -8.923
HEad  -16.2264 -24.6195 11.1647
LeftShoulder1  10.5938 -16.1455 -47.0458
LeftArm  1.56382 18.2768 -25.1302
LeftForeArm  30.8011 -33.4568 -5.65205
LeftHand  -0.25398 0.0180481 5.50724
RightShoulder  4.3286 10.8404 24.0074
RightArm  -33.1934 58.7923 22.5755
RightForeArm  -12.5664 13.6901 5.41507
RightHand  -12.3747 27.4438 -42.0668
LeftUpLeg  -26.9193 8.06772 0.438855
LeftLeg  15.9653 -7.79507 -2.36538
LeftFoot  6.84966 0.458344 -3.12373
LeftToes  1.06246e-005 4.65856e-005 -8.18502e-006
1059
root  -60.3046 39.8077 28.7912 -173.424 -17.0867 177.228
RightUpLeg  -28.2021 2.31576 -3.97844
RightLeg  27.8034 -1.25791 -0.953847
RightFoot  -2.84474 0.14804 -2.25453
RightToes  0.00048216 0.542163 -0.142577
Spine  43.4454 -1.3993 17.2856
Spine1  12.2608 8.7895 -9.26373
HEad  -16.8503 -24.5132 11.2093
LeftShoulder1  10.5568 -16.1949 -46.7568
LeftArm  0.632908 17.5044 -25.1923
LeftForeArm  30.4909 -34.4246 -5.91359
LeftHand  -0.25398 0.0180481 5.50724
RightShoulder  4.29027 10.7827 23.8541
RightArm  -33.6941 59.0045 23.4009
RightForeArm  -11.5942 14.6875 5.17612
RightHand  -13.8117 29.2259 -44.2289
LeftUpLeg  -27.2606 9.06972 -0.910819
LeftLeg  15.4167 -8.17797 -2.69909
LeftFoot  6.70339 0.341268 -2.41016
LeftToes  1.06246e-005 4.65856e-005 -8.18502e-006
1060
root  -60.9481 39.9328 28.7499 -172.307 -16.2042 177.216
RightUpLeg  -28.5478 3.95124 -5.35204
RightLeg  26.631 -1.86162 -1.24498
RightFoot  -2.71483 0.0596841 -1.03633
RightToes  0.00048216 0.542163 -0.142577
Spine  43.953 -1.56246 17.1172
Spine1  11.8032 8.83426 -9.72659
HEad  -17.1287 -24.7146 11.0811
LeftShoulder1  10.4179 -16.1874 -46.142
LeftArm  -0.803547 17.1206 -25.6472
LeftForeArm  30.1257 -36.0434 -6.35671
LeftHand  -0.25398 0.0180481 5.50724
RightShoulder  4.34651 10.8211 24.1813
RightArm  -33.765 58.6652 23.3892
RightForeArm  -11.7473 16.1453 5.13004
RightHand  -16.0129 31.5184 -47.6195
LeftUpLeg  -27.515 9.9439 -1.93618
LeftLeg  14.5588 -7.7842 -3.03199
LeftFoot  7.00553 0.16069 -1.25833
LeftToes  1.06246e-005 4.65856e-005 -8.18502e-006
1061
root  -61.5253 40.0544 28.7055 -171.227 -15.3579 177.274
RightUpLeg  -28.8391 4.93075 -6.40404
RightLeg  25.3089 -2.25665 -1.38954
RightFoot  -2.44713 0.0124044 -0.372519
RightToes  0.00048216 0.542163 -0.142577
Spine  44.2504 -1.55598 16.9445
Spine1  11.3927 8.87694 -9.883
HEad  -17.5406 -24.8794 10.8647
LeftShoulder1  10.2972 -16.1811 -45.6042
LeftArm  -2.14466 16.8966 -26.0033
LeftForeArm  29.2971 -38.1529 -6.98538
LeftHand  -0.25398 0.0180481 5.50724
RightShoulder  4.47311 10.9259 24.8712
RightArm  -33.5816 58.2521 22.2769
RightForeArm  -12.6623 18.2126 5.2332
RightHand  -17.9151 33.2541 -50.4624
LeftUpLeg  -27.7763 9.84686 -2.41264
LeftLeg  13.6944 -6.77813 -3.24833
LeftFoot  7.00416 0.0174335 -0.371359
LeftToes  1.06246e-005 4.65856e-005 -8.18502e-006
1062
root  -62.0481 40.1684 28.6683 -170.445 -14.6549 177.416
RightUpLeg  -28.8408 5.36544 -7.14157
RightLeg  23.9261 -2.36379 -1.37044
RightFoot  -2.06743 -0.0062465 -0.0899039
RightToes  0.00048216 0.542163 -0.142577
Spine  44.3905 -1.497 16.7715
Spine1  11.4798 8.82038 -9.51563
HEad  -18.1436 -24.8342 10.5984
LeftShoulder1  10.2704 -16.1663 -45.5167
LeftArm  -3.19238 16.482 -26.0026
LeftForeArm  28.6834 -40.4427 -7.69444
LeftHand  -0.25398 0.0180481 5.50724
RightShoulder  4.525 10.9787 25.1276
RightArm  -33.6232 57.9423 21.3754
RightForeArm  -12.4747 20.5856 5.30428
RightHand  -18.6045 33.8324 -51.4599
LeftUpLeg  -27.8311 8.92405 -2.47146
LeftLeg  12.8155 -5.41256 -3.31682
LeftFoot  6.90688 -0.0661065 0.14934
LeftToes  1.06246e-005 4.65856e-005 -8.18502e-006
1063
root  -62.5143 40.2581 28.6343 -169.984 -13.9678 177.684
RightUpLeg  -28.6384 5.55367 -7.59334
RightLeg  22.6246 -2.07925 -1.17181
RightFoot  -1.6148 -0.0251629 0.165869
RightToes  0.00048216 0.542163 -0.142577
Spine  44.4387 -1.41026 16.6244
Spine1  11.8968 8.76296 -8.91476
HEad  -18.6045 -24.6687 10.3543
LeftShoulder1  10.2947 -16.1107 -45.7624
LeftArm  -4.18282 15.8765 -25.8188
LeftForeArm  28.7687 -42.4691 -8.3247
LeftHand  -0.25398 0.0180481 5.50724
RightShoulder  4.47337 10.9549 24.8078
RightArm  -34.0054 57.7946 21.2606
RightForeArm  -10.8314 22.3328 5.36553
RightHand  -18.4698 33.7392 -51.2393
LeftUpLeg  -27.7207 8.24372 -2.44871
LeftLeg  12.1374 -4.00737 -3.35445
LeftFoot  6.94996 -0.165358 0.764112
LeftToes  1.06246e-005 4.65856e-005 -8.18502e-006
